<?xml version="1.0" encoding="UTF-8"?>
<svg version="1.1" xmlns="http://www.w3.org/2000/svg" width="1010" height="195">
<path d="M0 0 C3.27849347 2.72281661 5.92124158 5.74037957 8.5 9.125 C9.180625 8.42375 9.86125 7.7225 10.5625 7 C11.53809486 6.03803077 12.51757704 5.07999491 13.5 4.125 C14.00789063 3.62097656 14.51578125 3.11695312 15.0390625 2.59765625 C23.75035231 -5.51499042 34.14500233 -7.28312145 45.66796875 -7.08984375 C55.35090542 -6.54696759 62.98048559 -2.86898948 70.1875 3.5 C81.6869575 16.55343824 81.67046548 30.88043315 81.59765625 47.66796875 C81.59553383 49.54238396 81.59553383 49.54238396 81.59336853 51.45466614 C81.58875602 54.73758181 81.57981038 58.02044602 81.56866455 61.30334473 C81.55833788 64.66902026 81.55379183 68.03470362 81.54882812 71.40039062 C81.53871599 77.97530069 81.51913166 84.55008539 81.5 91.125 C72.92 91.125 64.34 91.125 55.5 91.125 C55.4906543 89.31902344 55.48130859 87.51304687 55.47167969 85.65234375 C55.43604633 79.6610939 55.38218169 73.67023608 55.31609726 67.67926025 C55.27671898 64.0496652 55.24448381 60.42030923 55.22900391 56.79052734 C55.21377283 53.28240773 55.17921567 49.77494583 55.13169098 46.26712036 C55.10980401 44.28877797 55.10753182 42.31024967 55.10565186 40.33178711 C54.97041648 31.96017851 54.31129382 25.83856833 48.0625 19.75 C42.24062187 16.05807728 37.3208333 15.44184925 30.5 16.125 C25.27078834 17.75377084 21.92675474 19.84155657 18.5 24.125 C15.03130982 31.28453656 15.02850843 37.94788062 14.98828125 45.8125 C14.96135445 47.75987061 14.96135445 47.75987061 14.93388367 49.74658203 C14.88667401 53.1724958 14.85667826 56.59834508 14.83044434 60.0244751 C14.80049081 63.53076918 14.75401196 67.03684159 14.70898438 70.54296875 C14.62328247 77.4035337 14.55732163 84.26413977 14.5 91.125 C6.25 91.125 -2 91.125 -10.5 91.125 C-10.5093457 89.39008301 -10.51869141 87.65516602 -10.52832031 85.86767578 C-10.56401231 80.09997997 -10.61791381 74.33260423 -10.68390274 68.56518745 C-10.72321294 65.07241209 -10.75548092 61.5798826 -10.77099609 58.08691406 C-10.78920428 54.06014638 -10.83922617 50.03429439 -10.890625 46.0078125 C-10.89185364 44.76887238 -10.89308228 43.52993225 -10.89434814 42.25344849 C-11.03471503 33.85028958 -11.86900473 25.94710028 -17.875 19.625 C-23.92555822 16.16753816 -29.61574308 15.27377812 -36.5 16.125 C-42.30133173 17.90071197 -46.20427491 20.98754619 -49.5 26.125 C-51.9624891 33.27532503 -51.84081563 40.78109702 -51.9140625 48.25390625 C-51.93342865 49.48415024 -51.9527948 50.71439423 -51.9727478 51.98191833 C-52.03218602 55.88370994 -52.07878583 59.78553161 -52.125 63.6875 C-52.16216838 66.34443202 -52.2022662 69.00130986 -52.2421875 71.65820312 C-52.33942935 78.1470707 -52.41928355 84.63582195 -52.5 91.125 C-60.75 91.125 -69 91.125 -77.5 91.125 C-77.5 59.115 -77.5 27.105 -77.5 -5.875 C-69.25 -5.875 -61 -5.875 -52.5 -5.875 C-52.17 -2.905 -51.84 0.065 -51.5 3.125 C-50.89414063 2.65449219 -50.28828125 2.18398437 -49.6640625 1.69921875 C-35.08985604 -9.13053774 -15.41866892 -10.9720865 0 0 Z " fill="#FFFFFF" transform="translate(259.5,72.875)"/>
<path d="M0 0 C2.74433519 1.99944421 5.22426929 4.06801929 7.625 6.46875 C7.955 2.83875 8.285 -0.79125 8.625 -4.53125 C16.875 -4.53125 25.125 -4.53125 33.625 -4.53125 C33.625 27.47875 33.625 59.48875 33.625 92.46875 C25.375 92.46875 17.125 92.46875 8.625 92.46875 C8.295 88.83875 7.965 85.20875 7.625 81.46875 C6.635 82.37625 5.645 83.28375 4.625 84.21875 C-4.21461623 91.77519613 -13.9557569 93.97048136 -25.453125 93.77734375 C-38.04811582 92.78630364 -46.63016086 87.67973793 -55.125 78.65625 C-64.15433868 67.72489785 -67.08391316 54.09625914 -66.72265625 40.1171875 C-65.68978426 29.27783425 -62.90150179 19.33556304 -56.375 10.46875 C-55.73304688 9.52128906 -55.73304688 9.52128906 -55.078125 8.5546875 C-42.9771821 -7.60363037 -16.46497698 -10.61557726 0 0 Z M-34.8125 24.78125 C-40.7684845 32.67756939 -41.33867106 40.73348211 -40.375 50.46875 C-38.73506464 57.66299022 -35.30645091 63.06686616 -29.375 67.46875 C-23.71527642 70.89919397 -18.94778835 72.19905982 -12.375 71.46875 C-3.47195357 69.12938619 1.77465032 64.90228345 6.42578125 57.00390625 C9.60270325 50.28787244 9.73980804 41.80074864 7.90625 34.67578125 C4.79479551 26.38275135 0.60692358 21.38714885 -7.375 17.46875 C-17.637121 14.36721647 -27.47441508 16.8814845 -34.8125 24.78125 Z " fill="#FFFFFF" transform="translate(639.375,71.53125)"/>
<path d="M0 0 C8.25 0 16.5 0 25 0 C25.33 23.1 25.66 46.2 26 70 C36.19002868 57.52144233 36.19002868 57.52144233 46.0625 44.8125 C47.11538348 43.42279666 48.16875598 42.03346365 49.22265625 40.64453125 C49.66359619 40.06034424 50.10453613 39.47615723 50.55883789 38.87426758 C51.03442139 38.25575928 51.51000488 37.63725098 52 37 C52.56033936 36.10990234 53.12067871 35.21980469 53.69799805 34.30273438 C56 32 56 32 59.48339844 31.43237305 C60.85897802 31.4331597 62.23472587 31.46112647 63.609375 31.51171875 C64.33618469 31.51879349 65.06299438 31.52586823 65.81182861 31.53315735 C68.12561457 31.5610727 70.43694998 31.62379617 72.75 31.6875 C74.32157954 31.71258701 75.89319716 31.73539949 77.46484375 31.75585938 C81.3108352 31.81088868 85.15500265 31.89713334 89 32 C86.6571522 36.03965552 84.09117177 39.22557058 80.875 42.625 C77.3077494 46.43656675 73.88577022 50.29299876 70.625 54.375 C66.52682928 59.47921985 62.13206494 64.24482105 57.60400391 68.96630859 C54.00632184 72.7586393 50.95617256 76.68617782 48 81 C48.78503906 81.845625 49.57007813 82.69125 50.37890625 83.5625 C55.41741078 88.99926719 60.44228101 94.43694277 65.29296875 100.04296875 C67.33633431 102.3855915 69.41680859 104.69273422 71.5 107 C74.81753645 110.67801579 78.11219856 114.37295886 81.359375 118.11328125 C82.48656191 119.4095462 83.62249517 120.69824126 84.765625 121.98046875 C85.31734375 122.60566406 85.8690625 123.23085937 86.4375 123.875 C86.93121094 124.42929688 87.42492187 124.98359375 87.93359375 125.5546875 C89 127 89 127 89 129 C58.89822336 131.24759223 58.89822336 131.24759223 52.8125 126.59765625 C50.38036966 123.99961443 48.66958589 121.04290994 47.04541016 117.890625 C45.21870514 114.5870277 42.76104825 111.78561147 40.375 108.875 C39.54678177 107.81199196 38.72127638 106.74686495 37.8984375 105.6796875 C34.00091749 100.73162301 29.98859411 95.87494836 26 91 C25.67 103.54 25.34 116.08 25 129 C16.75 129 8.5 129 0 129 C0 86.43 0 43.86 0 0 Z " fill="#FFFFFF" transform="translate(744,35)"/>
<path d="M0 0 C0.84820313 0.39058594 1.69640625 0.78117187 2.5703125 1.18359375 C10.22946961 5.2189407 15.75732691 11.41373751 18.4375 19.75 C19 23 19 23 19 29 C11.08 29 3.16 29 -5 29 C-5.99 26.69 -6.98 24.38 -8 22 C-12.58456247 17.70197269 -17.32068708 17.70555894 -23.328125 17.79296875 C-26.74125154 18.05743616 -28.59211048 18.51184749 -31 21 C-32.24838381 24.40528996 -32.24838381 24.40528996 -32 28 C-29.03012447 31.88650378 -25.8397679 33.01427798 -21.25 34.4375 C-20.59749268 34.64576416 -19.94498535 34.85402832 -19.27270508 35.06860352 C-15.79933175 36.17013896 -12.30833001 37.20457076 -8.80859375 38.21875 C2.37741056 41.49440646 11.61719582 44.5760804 17.94140625 54.94921875 C21.31713167 61.48890821 21.194375 69.97768777 19.12890625 76.93359375 C15.15515537 85.493444 8.67430993 90.58930725 0 94 C-11.43218786 98.11465248 -26.7624061 97.30720458 -38 93 C-47.18786532 88.63113032 -54.16929358 82.90774906 -58.2734375 73.50390625 C-59.28268267 70.02580866 -59.61381347 66.6006215 -60 63 C-55.93846834 62.76727312 -51.87864757 62.62545689 -47.8125 62.5 C-46.66201172 62.43296875 -45.51152344 62.3659375 -44.32617188 62.296875 C-35.94546025 62.10253966 -35.94546025 62.10253966 -33.15820312 64.74829102 C-31.90853183 66.78544847 -30.96565173 68.81904025 -30 71 C-25.37601673 75.21598475 -20.76053219 75.32878097 -14.73828125 75.296875 C-10.42005137 74.82870742 -8.0550164 73.0550164 -5 70 C-4.55470093 65.99979667 -4.55470093 65.99979667 -6.1015625 62.453125 C-8.75965569 60.41853515 -11.43829708 59.64174247 -14.625 58.625 C-15.27944092 58.41222412 -15.93388184 58.19944824 -16.6081543 57.98022461 C-20.19039666 56.83013405 -23.78885269 55.76928613 -27.41796875 54.77734375 C-38.26817886 51.79755946 -48.36546871 48.74446784 -55 39 C-58.57404712 32.56671518 -58.71055574 24.15528215 -56.84765625 17.16015625 C-53.66566528 9.05121151 -47.02868817 3.31319656 -39.265625 -0.2578125 C-27.44208117 -4.54909871 -11.6257808 -5.44053443 0 0 Z " fill="#FFFFFF" transform="translate(899,69)"/>
<path d="M0 0 C0.7115625 0.2784375 1.423125 0.556875 2.15625 0.84375 C13.09292129 5.72318796 19.60228017 14.54991337 23.875 25.5 C25 29 25 29 25 31 C20.62590199 31.23299846 16.25340109 31.374647 11.875 31.5 C10.6375 31.56703125 9.4 31.6340625 8.125 31.703125 C-0.90824641 31.89738836 -0.90824641 31.89738836 -4.12695312 29.25170898 C-5.62117952 27.2322684 -6.80270786 25.20287201 -8 23 C-12.31046941 19.28820689 -17.47115561 18.88481574 -23 19 C-29.00588255 19.90473231 -33.14170141 22.12245411 -36.78125 27.015625 C-41.96642516 35.45815379 -42.07573041 45.35181931 -41 55 C-39.33072921 61.89109225 -36.3151166 67.5349133 -30.5625 71.8125 C-24.02048621 73.99317126 -16.97951379 73.99317126 -10.4375 71.8125 C-6.33800795 68.76415976 -4.27313797 65.54627594 -2 61 C6.91 61 15.82 61 25 61 C22.48802395 72.30389222 18.25027058 80.77952078 9 88 C-3.87438279 95.90378207 -17.8095967 98.11547903 -32.63671875 95.3125 C-45.23424904 91.73450323 -55.18192391 85.44769341 -61.7578125 73.91796875 C-69.2477979 58.66662167 -70.18137268 42.21268225 -65 26 C-60.62585601 14.46816585 -53.01126834 6.43572136 -42 1 C-29.09684577 -4.65344386 -13.17798182 -5.23508867 0 0 Z " fill="#FFFFFF" transform="translate(471,69)"/>
<path d="M0 0 C8.25 0 16.5 0 25 0 C22.45187871 12.32171753 19.73475618 24.56996792 16.75390625 36.79296875 C16.34559411 38.47719993 15.93757844 40.16150301 15.52983093 41.84587097 C14.66149374 45.43096126 13.79157681 49.01566251 12.92028809 52.60003662 C10.58257629 62.21752981 8.25403298 71.83724433 5.92578125 81.45703125 C5.6852943 82.45026901 5.44480736 83.44350677 5.19703293 84.46684265 C1.42320606 100.05686706 -2.31026158 115.65621623 -6.01953125 131.26171875 C-6.50828458 133.3168514 -6.99704894 135.37198142 -7.48582458 137.42710876 C-9.60609924 146.3443827 -11.72388349 155.2622322 -13.83451366 164.18179417 C-14.69972529 167.83510891 -15.56776346 171.4877479 -16.4365139 175.14022255 C-16.84048093 176.84164829 -17.24314067 178.543385 -17.64443398 180.24544334 C-18.19038605 182.56073239 -18.74064687 184.87495521 -19.29199219 187.18896484 C-19.451818 187.87175097 -19.61164381 188.55453711 -19.77631283 189.25801373 C-20.88598492 193.88598492 -20.88598492 193.88598492 -22 195 C-23.78071246 195.08726223 -25.5648314 195.10699041 -27.34765625 195.09765625 C-28.42724609 195.09443359 -29.50683594 195.09121094 -30.61914062 195.08789062 C-31.75544922 195.07951172 -32.89175781 195.07113281 -34.0625 195.0625 C-35.20267578 195.05798828 -36.34285156 195.05347656 -37.51757812 195.04882812 C-40.34510351 195.03699747 -43.1725264 195.0205141 -46 195 C-45.33848375 188.65631579 -44.07388141 182.60850922 -42.57006836 176.41479492 C-42.32223697 175.37888529 -42.07440557 174.34297565 -41.81906414 173.27567482 C-40.99674458 169.84294438 -40.16829462 166.41172416 -39.33984375 162.98046875 C-38.75607134 160.54865171 -38.17269521 158.11673952 -37.58969116 155.68473816 C-36.35174808 150.52422263 -35.1112585 145.36433014 -33.86831665 140.20501709 C-31.93770432 132.191197 -30.01270463 124.17603475 -28.08862305 116.16064453 C-27.44860621 113.49474051 -26.80853916 110.82884855 -26.16844177 108.16296387 C-26.01059104 107.50553688 -25.8527403 106.84810989 -25.69010621 106.17076087 C-24.57747282 101.53720625 -23.46394325 96.90386756 -22.34999084 92.27062988 C-18.75885288 77.3333712 -15.17745086 62.39386732 -11.6171875 47.44921875 C-11.42383127 46.63780363 -11.23047504 45.82638851 -11.03125954 44.99038506 C-9.45811967 38.38855416 -7.88580482 31.78652745 -6.31588745 25.18392944 C-5.41635823 21.40094593 -4.51486561 17.61843176 -3.61328125 13.8359375 C-3.22938736 12.21802559 -3.22938736 12.21802559 -2.83773804 10.56742859 C-2.6068045 9.59948868 -2.37587097 8.63154877 -2.13793945 7.63427734 C-1.94037552 6.80358734 -1.74281158 5.97289734 -1.53926086 5.11703491 C-1.09959066 3.39097385 -0.56325808 1.68977425 0 0 Z " fill="#FFFFFF" transform="translate(139,0)"/>
<path d="M0 0 C8.25 0 16.5 0 25 0 C25 7.59 25 15.18 25 23 C32.26 23 39.52 23 47 23 C47 29.93 47 36.86 47 44 C39.74 44 32.48 44 25 44 C25.09698025 50.60231321 25.19974137 57.20400543 25.31738281 63.8059082 C25.35564079 66.05129513 25.39049921 68.29674269 25.421875 70.54223633 C25.46759417 73.77186737 25.52557807 77.00108222 25.5859375 80.23046875 C25.60326431 81.73386055 25.60326431 81.73386055 25.62094116 83.2676239 C25.64081085 84.20822159 25.66068054 85.14881927 25.68115234 86.11791992 C25.69447601 86.94176682 25.70779968 87.76561371 25.7215271 88.61442566 C26.04365592 91.37398413 26.78018733 93.50824519 28 96 C31.29625296 97.64812648 34.99458475 97.38249331 38.625 97.5625 C41.38875 97.706875 44.1525 97.85125 47 98 C47 105.26 47 112.52 47 120 C18.93466731 120.23987464 18.93466731 120.23987464 7.6875 112.8125 C1.82895493 106.68146447 -0.13380274 98.9929275 -0.11352539 90.65893555 C-0.11344986 89.6182341 -0.11337433 88.57753265 -0.11329651 87.5052948 C-0.10813522 86.3936647 -0.10297394 85.28203461 -0.09765625 84.13671875 C-0.0962413 82.98959915 -0.09482635 81.84247955 -0.09336853 80.66059875 C-0.08777861 77.00287246 -0.07522789 73.34520775 -0.0625 69.6875 C-0.0574837 67.20507901 -0.05292102 64.72265706 -0.04882812 62.24023438 C-0.03781246 56.16013258 -0.02055469 50.08007673 0 44 C-3.63 44 -7.26 44 -11 44 C-11 37.07 -11 30.14 -11 23 C-7.37 23 -3.74 23 0 23 C0 15.41 0 7.82 0 0 Z " fill="#FFFFFF" transform="translate(517,44)"/>
<path d="M0 0 C8.25 0 16.5 0 25 0 C25 42.57 25 85.14 25 129 C16.75 129 8.5 129 0 129 C0 86.43 0 43.86 0 0 Z " fill="#FFFFFF" transform="translate(696,35)"/>
<path d="M0 0 C4.37380837 -0.2497782 8.74370806 -0.42978019 13.12255859 -0.54931641 C14.60701873 -0.5991953 16.09099793 -0.66713623 17.57373047 -0.75439453 C29.78860887 -1.45450557 29.78860887 -1.45450557 35.02441406 1.98925781 C37.58954418 4.5271717 39.8056812 7.13802542 42 10 C43.1489002 11.3304374 44.30580361 12.6540294 45.47265625 13.96875 C46.29660889 14.92974609 46.29660889 14.92974609 47.13720703 15.91015625 C51.0427332 20.2917164 55.26915605 24.37066863 59.4375 28.5 C60.82098633 29.87671875 60.82098633 29.87671875 62.23242188 31.28125 C64.48599899 33.52315055 66.74189075 35.762666 69 38 C66.39999637 43.09244209 62.55642669 46.68092162 58.5234375 50.63671875 C57.79758453 51.35737015 57.07173157 52.07802155 56.32388306 52.82051086 C54.01230258 55.11432478 51.69412687 57.40131801 49.375 59.6875 C47.04962896 61.98526806 44.7257282 64.28447562 42.4046936 66.58662415 C40.96176935 68.01727396 39.51618068 69.44524237 38.06771851 70.87028503 C37.09132919 71.83687798 37.09132919 71.83687798 36.09521484 72.82299805 C35.2327565 73.67307686 35.2327565 73.67307686 34.35287476 74.54032898 C32.89500677 75.97665049 32.89500677 75.97665049 32 78 C21.44 78 10.88 78 0 78 C1.99789009 74.00421982 3.8254853 71.9558862 6.98046875 68.859375 C7.47154617 68.37349915 7.9626236 67.88762329 8.46858215 67.38702393 C10.03685648 65.83649697 11.61163482 64.29280844 13.1875 62.75 C21.24797364 54.8338893 28.95563647 46.85078097 36 38 C35.54898926 37.55343048 35.09797852 37.10686096 34.63330078 36.64675903 C29.95593004 32.01350748 25.28551296 27.37333178 20.61914062 22.72900391 C18.87483628 20.99478037 17.12874434 19.26235294 15.38085938 17.53173828 C12.87422271 15.04925855 10.37400718 12.56046935 7.875 10.0703125 C7.08754395 9.29317902 6.30008789 8.51604553 5.48876953 7.71536255 C4.76802246 6.99476654 4.04727539 6.27417053 3.3046875 5.53173828 C2.66515137 4.89664337 2.02561523 4.26154846 1.36669922 3.60720825 C0 2 0 2 0 0 Z " fill="#FFFFFF" transform="translate(941,63)"/>
<path d="M0 0 C-6.15994806 7.2907232 -6.15994806 7.2907232 -9.4375 10.4375 C-11.81501382 12.76559029 -14.03732713 15.15938315 -16.1953125 17.69140625 C-20.08212421 22.16286374 -24.22479481 26.33740018 -28.4375 30.5 C-29.16904297 31.22703125 -29.90058594 31.9540625 -30.65429688 32.703125 C-32.43389824 34.47109499 -34.21580918 36.23666378 -36 38 C-34.69951142 40.87157857 -33.33066432 42.91024149 -31.08251953 45.11279297 C-30.20117844 45.9842244 -30.20117844 45.9842244 -29.30203247 46.8732605 C-28.66868988 47.49000641 -28.03534729 48.10675232 -27.3828125 48.7421875 C-26.72924774 49.38817902 -26.07568298 50.03417053 -25.40231323 50.69973755 C-22.61209245 53.45734315 -19.81025224 56.20303213 -17.00927734 58.94970703 C-14.9629714 60.95970216 -12.92279322 62.97577624 -10.8828125 64.9921875 C-9.93887131 65.91123367 -9.93887131 65.91123367 -8.9758606 66.84884644 C-5.44692698 70.33852247 -2.59490613 73.76501634 0 78 C-4.35541936 78.27517229 -8.70605546 78.47291856 -13.06762695 78.60424805 C-14.54541214 78.65905226 -16.02261533 78.73374117 -17.49829102 78.82983398 C-23.97979385 79.24083467 -29.67269741 79.58636829 -35.25146484 75.78369141 C-38.14675138 73.09654009 -40.56460599 70.10438693 -43 67 C-44.18184365 65.63975614 -45.36983578 64.28480727 -46.56640625 62.9375 C-47.10668457 62.30585937 -47.64696289 61.67421875 -48.20361328 61.0234375 C-51.92339362 56.83350281 -55.95755156 52.94060294 -59.9375 49 C-60.81212891 48.12988281 -61.68675781 47.25976562 -62.58789062 46.36328125 C-64.72297449 44.23986451 -66.86037205 42.11883622 -69 40 C-67.1527997 35.97345806 -64.47493371 33.28406924 -61.3125 30.25 C-55.32951842 24.47332813 -49.75966814 18.51427007 -44.94140625 11.71875 C-33.03652572 -3.78194884 -17.7759538 -1.6818588 0 0 Z " fill="#FFFFFF" transform="translate(69,63)"/>
<path d="M0 0 C8.25 0 16.5 0 25 0 C25 32.01 25 64.02 25 97 C16.75 97 8.5 97 0 97 C0 64.99 0 32.98 0 0 Z " fill="#FFFFFF" transform="translate(362,67)"/>
<path d="M0 0 C3.92519361 2.04575769 6.40587539 4.125343 7.90625 8.2734375 C8.55720073 13.59495973 8.5587787 17.86799106 6.28125 22.7734375 C2.22800864 27.04000735 -1.28634267 28.44062274 -7.09375 28.7109375 C-11.81796273 28.55488242 -14.48327749 27.45409185 -18.09375 24.2734375 C-18.8775 23.5928125 -19.66125 22.9121875 -20.46875 22.2109375 C-22.9845641 17.66311971 -22.82433881 13.35028423 -22.09375 8.2734375 C-20.3361233 4.48777999 -18.83779501 2.80489822 -15.46875 0.3984375 C-10.31806246 -1.31845835 -5.21037123 -1.80807658 0 0 Z " fill="#FFFFFF" transform="translate(382.09375,28.7265625)"/>
</svg>
